<?xml version="1.0" encoding="UTF-8"?>
<svg version="1.1" xmlns="http://www.w3.org/2000/svg" width="120" height="120" fill="#ffffff">
  <path d="M0 0 C3.85846831 1.2861561 4.59332453 2.92958512 6.875 6.25 C9.68933803 10.21658512 12.3813355 13.72597021 16 17 C16.72960937 17.67546875 17.45921875 18.3509375 18.2109375 19.046875 C22.29515472 22.79178802 26.37939142 26.32061724 30.875 29.5625 C38.44671591 35.42490438 39.48848791 42.2230117 40.703125 51.4375 C40.80109375 52.283125 40.8990625 53.12875 41 54 C42.65 54.33 44.3 54.66 46 55 C46.33 54.01 46.66 53.02 47 52 C53.75 51.875 53.75 51.875 56 53 C55.9175 52.05125 55.835 51.1025 55.75 50.125 C55.72469596 43.9255103 58.62317141 38.06524289 62 33 C62.66 33 63.32 33 64 33 C64.33 32.01 64.66 31.02 65 30 C66.9765625 28.66796875 66.9765625 28.66796875 69.625 27.1875 C74.91707855 23.94575555 79.35526541 20.1828897 83.875 15.9375 C84.81980225 15.05324341 84.81980225 15.05324341 85.78369141 14.15112305 C88.65047374 11.41680056 91.30912567 8.68349863 93.7578125 5.56640625 C94.49773437 4.71949219 95.23765625 3.87257812 96 3 C96.99 3 97.98 3 99 3 C100.51272509 7.66250883 99.15497104 10.75511365 97 15 C95.45463536 17.17359893 93.81742634 19.03521477 92 21 C96.06962402 19.76964855 99.38325151 18.21023519 103 16 C103.66 16 104.32 16 105 16 C105.33 15.01 105.66 14.02 106 13 C106.99 13 107.98 13 109 13 C109.41603248 17.16032483 109.28165041 19.4869939 107.25 23.1875 C103.34449362 27.43459586 97.38789314 28.53916773 92 30 C97.445 29.01 97.445 29.01 103 28 C102.00428617 32.97856913 101.46392791 34.53607209 98 38 C91.45093176 41.05623185 85.90234083 40.47391613 79.25 38.125 C76.15070103 36.95626994 73.77300665 35.8486711 71 34 C69.84481082 34.90484792 68.70114594 35.8244206 67.5625 36.75 C66.92441406 37.26046875 66.28632812 37.7709375 65.62890625 38.296875 C63.81189446 40.19667629 63.39576803 41.43586908 63 44 C63.99 44.0928125 63.99 44.0928125 65 44.1875 C69.18657836 45.32136497 72.42550992 47.59631064 76 50 C75.2578125 51.921875 75.2578125 51.921875 74 54 C72.0546875 54.828125 72.0546875 54.828125 69.875 55.25 C68.59625 55.4975 67.3175 55.745 66 56 C65.01 54.35 64.02 52.7 63 51 C61.76882503 59.029402 61.69558735 64.07623547 66 71 C66.33 71.99 66.66 72.98 67 74 C69.01508358 74.73323796 69.01508358 74.73323796 71 75 C71 77.31 71 79.62 71 82 C68.69 82 66.38 82 64 82 C64 80.02 64 78.04 64 76 C63.1028125 75.5978125 63.1028125 75.5978125 62.1875 75.1875 C60.01683117 74.00913692 58.69182788 72.76939019 57 71 C57.11859375 72.22976562 57.2371875 73.45953125 57.359375 74.7265625 C57.49074324 76.35928209 57.62088702 77.99210052 57.75 79.625 C57.83121094 80.43324219 57.91242188 81.24148437 57.99609375 82.07421875 C58.41998943 87.86745973 57.39277047 90.16884966 54 95 C53.43947792 97.72731641 53.39548542 100.40916553 53.375 103.1875 C53.23986486 110.6402027 53.23986486 110.6402027 51 114 C50.01 114 49.02 114 48 114 C47.505 115.98 47.505 115.98 47 118 C45.35 117.67 43.7 117.34 42 117 C41.855625 116.113125 41.71125 115.22625 41.5625 114.3125 C41.24028529 112.41501336 40.90328715 110.51960664 40.5234375 108.6328125 C39.98991112 105.94925444 39.52531493 103.2590663 39.0625 100.5625 C38.52158876 97.51224866 37.9457745 94.85238613 36.875 91.9375 C34.60876143 84.32941336 36.19898194 76.55784364 38 69 C32.13467107 71.92761358 32.13467107 71.92761358 28.75 77.25 C28.5025 78.1575 28.255 79.065 28 80 C25.875 80.875 25.875 80.875 24 81 C23.34 79.35 22.68 77.7 22 76 C23.24685757 74.41419086 24.49763026 72.8314596 25.75 71.25 C26.44609375 70.36828125 27.1421875 69.4865625 27.859375 68.578125 C30 66 30 66 32.25 64.0625 C34.65036621 61.23349696 34.40867804 59.39959491 34.25 55.75 C34.19585937 54.13351563 34.19585937 54.13351563 34.140625 52.484375 C34.09421875 51.66453125 34.0478125 50.8446875 34 50 C32.9694 48.83875 31.9388 47.6775 30.875 46.4375 C26.37939142 43.32061724 22.29515472 39.79178802 18.2109375 36.046875 C17.45921875 35.3509375 16.72960937 34.67546875 16 34 C12.3813355 30.72597021 9.68933803 27.21658512 6.875 23.25 C4.59332453 19.92958512 3.85846831 18.2861561 0 16 L0 0 Z" />
</svg>
